<svg width="32" height="50" viewBox="0 0 32 50" fill="none" xmlns="http://www.w3.org/2000/svg">
<path d="M16.2454 4.68773C16.2454 3.44447 16.7393 2.25212 17.6184 1.373C18.4975 0.493884 19.6899 0 20.9331 0C22.1764 0 23.3687 0.493884 24.2478 1.373C25.127 2.25212 25.6209 3.44447 25.6209 4.68773C25.6209 5.93099 25.127 7.12333 24.2478 8.00245C23.3687 8.88157 22.1764 9.37546 20.9331 9.37546C19.6899 9.37546 18.4975 8.88157 17.6184 8.00245C16.7393 7.12333 16.2454 5.93099 16.2454 4.68773ZM12.9737 19.4638C12.8761 19.5029 12.7882 19.542 12.6905 19.581L11.9092 19.9228C10.3076 20.6358 9.07707 21.9933 8.52041 23.6535L8.26649 24.4153C7.71959 26.056 5.95192 26.9349 4.31122 26.388C2.67051 25.8411 1.79156 24.0734 2.33846 22.4327L2.59238 21.671C3.70572 18.3407 6.16677 15.6258 9.37006 14.1999L10.1513 13.8581C12.1827 12.9596 14.3801 12.4908 16.6067 12.4908C20.9624 12.4908 24.8884 15.1082 26.5584 19.122L28.0624 22.7257L30.1523 23.7707C31.6954 24.5422 32.3204 26.4173 31.5489 27.9603C30.7774 29.5034 28.9023 30.1284 27.3592 29.3569L24.7419 28.058C23.736 27.5502 22.9449 26.7103 22.5152 25.6653L21.5777 23.4191L19.6928 29.8159L24.527 35.0896C25.0544 35.6658 25.4255 36.3592 25.6209 37.121L27.8671 46.1155C28.287 47.7855 27.2713 49.4848 25.5916 49.9048C23.9118 50.3247 22.2222 49.309 21.8023 47.6293L19.6538 39.0253L12.7491 31.4957C11.3037 29.9233 10.7666 27.726 11.3135 25.6653L12.964 19.4638H12.9737ZM7.32894 38.8691L9.77047 32.775C9.97555 33.068 10.2099 33.3415 10.4541 33.6149L14.4289 37.9511L13.0128 41.4864C12.7784 42.0724 12.4268 42.6095 11.9776 43.0587L5.95192 49.0844C4.73116 50.3052 2.74864 50.3052 1.52788 49.0844C0.307114 47.8637 0.307114 45.8811 1.52788 44.6604L7.32894 38.8691Z" fill="#FFC000"/>
</svg>
