<svg width="43" height="50" viewBox="0 0 43 50" fill="none" xmlns="http://www.w3.org/2000/svg">
<path fill-rule="evenodd" clip-rule="evenodd" d="M7.07926 14.5833C7.07926 6.52918 13.6084 0 21.6626 0C29.7168 0 36.2459 6.52918 36.2459 14.5833V25H37.0793C39.8407 25 42.0793 27.2386 42.0793 30V45C42.0793 47.7614 39.8407 50 37.0793 50H5.4126C2.65118 50 0.412598 47.7614 0.412598 45V30C0.412598 27.2386 2.65117 25 5.4126 25H7.07926V14.5833ZM11.2461 25H32.0794V14.5833C32.0794 8.83037 27.4157 4.16667 21.6628 4.16667C15.9098 4.16667 11.2461 8.83037 11.2461 14.5833V25ZM4.57926 31.1667C4.57926 30.0621 5.4747 29.1667 6.57926 29.1667H35.9126C37.0172 29.1667 37.9126 30.0621 37.9126 31.1667V43.8333C37.9126 44.9379 37.0172 45.8333 35.9126 45.8333H6.57926C5.4747 45.8333 4.57926 44.9379 4.57926 43.8333V31.1667Z" fill="#FFC000"/>
</svg>
